<?xml version="1.0" encoding="UTF-8" standalone="no"?>
<!-- Created with Inkscape (http://www.inkscape.org/) -->

<svg
   width="163.48694"
   height="163.48691"
   viewBox="0 0 163.48694 163.48691"
   version="1.1"
   id="svg1"
   inkscape:version="1.3 (0e150ed6c4, 2023-07-21)"
   sodipodi:docname="post_1_1080x1080.svg"
   xml:space="preserve"
   inkscape:export-filename="post_1_1080x1080_p2.png"
   inkscape:export-xdpi="96"
   inkscape:export-ydpi="96"
   xmlns:inkscape="http://www.inkscape.org/namespaces/inkscape"
   xmlns:sodipodi="http://sodipodi.sourceforge.net/DTD/sodipodi-0.dtd"
   xmlns="http://www.w3.org/2000/svg"
   xmlns:svg="http://www.w3.org/2000/svg"
   xmlns:rdf="http://www.w3.org/1999/02/22-rdf-syntax-ns#"
   xmlns:cc="http://creativecommons.org/ns#"
   xmlns:dc="http://purl.org/dc/elements/1.1/"><title
     id="title5">Postagem Linkedin</title><sodipodi:namedview
     id="namedview1"
     pagecolor="#ff00ff"
     bordercolor="#ffffff"
     borderopacity="1"
     inkscape:showpageshadow="false"
     inkscape:pageopacity="0"
     inkscape:pagecheckerboard="false"
     inkscape:deskcolor="#ff8080"
     inkscape:document-units="px"
     showborder="true"
     inkscape:clip-to-page="true"
     labelstyle="default"
     showguides="true"
     inkscape:lockguides="false"
     showgrid="true"
     inkscape:zoom="0.68684764"
     inkscape:cx="609.30543"
     inkscape:cy="535.05316"
     inkscape:window-width="1920"
     inkscape:window-height="1009"
     inkscape:window-x="-8"
     inkscape:window-y="-8"
     inkscape:window-maximized="1"
     inkscape:current-layer="layer1"><inkscape:grid
       id="grid4"
       units="px"
       originx="-688.3194"
       originy="-467.49258"
       spacingx="54"
       spacingy="54"
       empcolor="#3f3fff"
       empopacity="0.25098039"
       color="#3f3fff"
       opacity="0.1254902"
       empspacing="4"
       dotted="false"
       gridanglex="30"
       gridanglez="30"
       visible="true"
       snapvisiblegridlinesonly="true"
       enabled="true" /><sodipodi:guide
       position="-634.3194,1493.4926"
       orientation="0,1"
       id="guide5"
       inkscape:locked="false"
       inkscape:label=""
       inkscape:color="rgb(0,134,229)" /><sodipodi:guide
       position="337.6806,1547.4926"
       orientation="-1,0"
       id="guide6"
       inkscape:locked="false"
       inkscape:label=""
       inkscape:color="rgb(0,134,229)" /><sodipodi:guide
       position="-688.3194,521.49258"
       orientation="0,1"
       id="guide7"
       inkscape:locked="false"
       inkscape:label=""
       inkscape:color="rgb(0,134,229)" /><sodipodi:guide
       position="-634.3194,1547.4926"
       orientation="-1,0"
       id="guide8"
       inkscape:locked="false"
       inkscape:label=""
       inkscape:color="rgb(0,134,229)" /></sodipodi:namedview><defs
     id="defs1" /><g
     inkscape:label="Layer 1"
     inkscape:groupmode="layer"
     id="layer1"
     transform="translate(-688.3194,-467.49258)"><g
       id="g384"><g
         id="g26-2"
         inkscape:label="icon"
         transform="matrix(1.5698942,0,0,1.5698942,715.43997,194.4183)"
         inkscape:export-filename="ico.svg"
         inkscape:export-xdpi="63.862297"
         inkscape:export-ydpi="63.862297"
         style="display:inline;stroke:none;stroke-width:2.12168;stroke-linecap:round;stroke-linejoin:round;stroke-dasharray:none;stroke-opacity:1;paint-order:stroke fill markers"><g
           id="g30-0"
           inkscape:label="bg"
           inkscape:export-filename="ico.svg"
           inkscape:export-xdpi="63.862297"
           inkscape:export-ydpi="63.862297"
           style="display:none;stroke:none;stroke-width:2.12168;stroke-linecap:round;stroke-linejoin:round;stroke-dasharray:none;stroke-opacity:1;paint-order:stroke fill markers"><path
             id="circle20-2"
             style="display:inline;fill:#ffffff;stroke-miterlimit:0"
             inkscape:label="circle_l"
             transform="translate(-0.0467577,0.55012552)"
             d="M 1.7075539,225.46373 A 10.436209,10.436209 0 0 1 -8.7286549,235.89994 10.436209,10.436209 0 0 1 -19.164864,225.46373 10.436209,10.436209 0 0 1 -8.7286549,215.02752 10.436209,10.436209 0 0 1 1.7075539,225.46373 Z" /><path
             id="path20-2"
             style="display:inline;fill:#ffffff;stroke-miterlimit:0"
             inkscape:label="circle_r"
             transform="translate(-0.0467577,0.55012552)"
             d="M 88.84638,225.46365 A 10.436209,10.436209 0 0 1 78.410172,235.89986 10.436209,10.436209 0 0 1 67.973963,225.46365 10.436209,10.436209 0 0 1 78.410172,215.02744 10.436209,10.436209 0 0 1 88.84638,225.46365 Z" /><path
             id="circle22-7"
             style="display:inline;fill:#ffffff;stroke-miterlimit:0"
             inkscape:label="circle_b"
             transform="translate(-0.0467577,0.55012552)"
             d="M 45.276987,269.03305 A 10.436209,10.436209 0 0 1 34.840778,279.46926 10.436209,10.436209 0 0 1 24.40457,269.03305 10.436209,10.436209 0 0 1 34.840778,258.59684 10.436209,10.436209 0 0 1 45.276987,269.03305 Z" /><path
             id="circle21-3"
             style="display:inline;fill:#ffffff;stroke:none;stroke-width:2.12168;stroke-linecap:round;stroke-linejoin:round;stroke-miterlimit:0;stroke-dasharray:none;stroke-opacity:1;paint-order:stroke fill markers"
             inkscape:label="circle_t"
             transform="translate(-0.0467577,0.55012552)"
             d="M 45.276987,181.89426 A 10.436209,10.436209 0 0 1 34.840778,192.33047 10.436209,10.436209 0 0 1 24.40457,181.89426 10.436209,10.436209 0 0 1 34.840778,171.45805 10.436209,10.436209 0 0 1 45.276987,181.89426 Z" /><path
             id="circle23-4"
             style="display:inline;fill:#ffffff;stroke-width:8.51883;stroke-miterlimit:0"
             inkscape:label="circle_c"
             d="m 82.975586,226.01378 a 48.181564,48.181564 0 0 1 -48.181564,48.18156 48.181564,48.181564 0 0 1 -48.181565,-48.18156 48.181564,48.181564 0 0 1 48.181565,-48.18157 48.181564,48.181564 0 0 1 48.181564,48.18157 z" /></g><path
           id="path15-5"
           style="fill:#1e2a3b;fill-opacity:1;stroke:none;stroke-width:2.12168;stroke-linecap:round;stroke-linejoin:round;stroke-miterlimit:0;stroke-dasharray:none;stroke-opacity:1;paint-order:stroke fill markers"
           inkscape:label="inner"
           d="m 32.682243,193.58147 v 12.27522 A 20.307817,20.307817 0 0 0 14.637349,223.9021 H 2.361613 v 4.22351 h 12.275736 a 20.307817,20.307817 0 0 0 18.044894,18.04489 v 12.27574 h 4.223515 v -12.2375 A 20.307817,20.307817 0 0 0 54.988892,228.12561 H 67.226388 V 223.9021 H 54.988892 A 20.307817,20.307817 0 0 0 36.905758,205.81896 v -12.23749 z m 2.112016,16.26567 a 16.166767,16.166767 0 0 1 16.166455,16.16645 16.166767,16.166767 0 0 1 -16.166455,16.16698 16.166767,16.166767 0 0 1 -16.166972,-16.16698 16.166767,16.166767 0 0 1 16.166972,-16.16645 z" /><path
           id="path16-08"
           style="display:inline;fill:#1e2a3b;fill-opacity:1;stroke:none;stroke-width:2.12168;stroke-linecap:round;stroke-linejoin:round;stroke-miterlimit:0;stroke-dasharray:none;stroke-opacity:1;paint-order:stroke fill markers"
           inkscape:label="outer"
           inkscape:transform-center-x="-22.216294"
           inkscape:transform-center-y="-22.216294"
           d="m -181.58116,22.888525 a 46,46 0 0 0 -32.5267,-32.5272132 l -1.26659,4.7278768 a 41.163937,41.163937 0 0 1 29.06541,29.0659264 z m 0,23.81095 -4.68189,-1.254187 a 41.163937,41.163937 0 0 1 -29.09952,29.099516 l 1.25471,4.681885 a 46,46 0 0 0 32.5267,-32.527214 z m -55.07158,-51.6102864 -1.26659,-4.7278768 a 46,46 0 0 0 -32.52721,32.5272132 l 4.72788,1.26659 a 41.163937,41.163937 0 0 1 29.06592,-29.0659264 z m -0.0119,79.4556154 a 41.163937,41.163937 0 0 1 -29.10004,-29.100033 l -4.68188,1.254704 a 46,46 0 0 0 32.52721,32.527214 z"
           transform="rotate(-90)" /><g
           id="g25-4"
           transform="translate(-0.0467577,0.55012512)"
           style="display:inline;stroke:none;stroke-width:2.12168;stroke-linecap:round;stroke-linejoin:round;stroke-dasharray:none;stroke-opacity:1;paint-order:stroke fill markers"><circle
             style="fill:#00d1ff;fill-opacity:1;stroke:none;stroke-width:2.12168;stroke-linecap:round;stroke-linejoin:round;stroke-miterlimit:0;stroke-dasharray:none;stroke-opacity:1;paint-order:stroke fill markers"
             id="circle16-2"
             cx="78.410172"
             cy="225.46365"
             r="8.5"
             inkscape:label="circle_r" /><circle
             style="fill:#00d1ff;fill-opacity:1;stroke:none;stroke-width:2.12168;stroke-linecap:round;stroke-linejoin:round;stroke-miterlimit:0;stroke-dasharray:none;stroke-opacity:1;paint-order:stroke fill markers"
             id="circle17-67"
             cx="-8.7286549"
             cy="225.46373"
             r="8.5"
             inkscape:label="circle_l" /><circle
             style="fill:#1e2a3b;fill-opacity:1;stroke:none;stroke-width:2.12168;stroke-linecap:round;stroke-linejoin:round;stroke-miterlimit:0;stroke-dasharray:none;stroke-opacity:1;paint-order:stroke fill markers"
             id="circle18-1"
             cx="34.840778"
             cy="181.89426"
             r="8.5"
             inkscape:label="circle_t" /><circle
             style="fill:#1e2a3b;fill-opacity:1;stroke:none;stroke-width:2.12168;stroke-linecap:round;stroke-linejoin:round;stroke-miterlimit:0;stroke-dasharray:none;stroke-opacity:1;paint-order:stroke fill markers"
             id="circle19-94"
             cx="34.840778"
             cy="269.03305"
             r="8.5"
             inkscape:label="circle_b" /><circle
             style="fill:#6c5ce7;fill-opacity:1;stroke:none;stroke-width:2.12168;stroke-linecap:round;stroke-linejoin:round;stroke-miterlimit:0;stroke-dasharray:none;stroke-opacity:1;paint-order:stroke fill markers"
             id="circle24-8"
             cx="34.840778"
             cy="225.46365"
             inkscape:label="circle_c"
             r="12" /></g></g></g></g><metadata
     id="metadata5"><rdf:RDF><cc:Work
         rdf:about=""><dc:title>Postagem Linkedin</dc:title><dc:creator><cc:Agent><dc:title>Alex Rodin</dc:title></cc:Agent></dc:creator><dc:rights><cc:Agent><dc:title>Alex Rodin</dc:title></cc:Agent></dc:rights><dc:publisher><cc:Agent><dc:title>Alex Rodin</dc:title></cc:Agent></dc:publisher><dc:description>Postagem publicada no perfil do linkedin em https://www.linkedin.com/in/alexrodin/</dc:description></cc:Work></rdf:RDF></metadata></svg>
